HIERARCHY
ROOT Hips
{
	OFFSET -3.958830 18.904000 13.208200
	CHANNELS 6 Xposition Yposition Zposition Zrotation Yrotation Xrotation 
	JOINT LHipJoint
	{
		OFFSET 0.000000 0.000000 0.000000
		CHANNELS 3 Zrotation Yrotation Xrotation
		JOINT LeftUpLeg
		{
			OFFSET 1.800000 -1.400000 0.085000
			CHANNELS 3 Zrotation Yrotation Xrotation
			JOINT LeftLeg
			{
				OFFSET 2.215000 -6.000000 0.000000
				CHANNELS 3 Zrotation Yrotation Xrotation
				JOINT LeftFoot
				{
					OFFSET 2.500000 -6.900000 0.000000
					CHANNELS 3 Zrotation Yrotation Xrotation
					JOINT LeftToeBase
					{
						OFFSET 0.200000 -0.500000 1.950000
						CHANNELS 3 Zrotation Yrotation Xrotation
						End Site
						{
							OFFSET 0.000000 0.000000 0.000000
						}
					}
				}
			}
		}
	}
	JOINT RHipJoint
	{
		OFFSET 0.000000 0.000000 0.000000
		CHANNELS 3 Zrotation Yrotation Xrotation
		JOINT RightUpLeg
		{
			OFFSET -1.800000 -1.400000 0.085000
			CHANNELS 3 Zrotation Yrotation Xrotation
			JOINT RightLeg
			{
				OFFSET -2.215000 -6.000000 0.000000
				CHANNELS 3 Zrotation Yrotation Xrotation
				JOINT RightFoot
				{
					OFFSET -2.500000 -6.900000 0.000000
					CHANNELS 3 Zrotation Yrotation Xrotation
					JOINT RightToeBase
					{
						OFFSET -0.200000 -0.500000 1.950000
						CHANNELS 3 Zrotation Yrotation Xrotation
						End Site
						{
							OFFSET 0.000000 0.000000 0.000000
						}
					}
				}
			}
		}
	}
	JOINT LowerBack
	{
		OFFSET 0.000000 0.000000 0.000000
		CHANNELS 3 Zrotation Yrotation Xrotation
		JOINT Spine
		{
			OFFSET -0.087000 1.940000 -0.288900
			CHANNELS 3 Zrotation Yrotation Xrotation
			JOINT Spine1
			{
				OFFSET 0.000000 1.950000 0.060000
				CHANNELS 3 Zrotation Yrotation Xrotation
				JOINT Neck
				{
					OFFSET 0.000000 0.000000 0.000000
					CHANNELS 3 Zrotation Yrotation Xrotation
					JOINT Neck1
					{
						OFFSET 0.000000 1.600000 0.340000
						CHANNELS 3 Zrotation Yrotation Xrotation
						JOINT Head
						{
							OFFSET 0.000000 1.667000 -0.240000
							CHANNELS 3 Zrotation Yrotation Xrotation
							End Site
							{
								OFFSET 0.000000 0.000000 0.000000
							}
						}
					}
				}
				JOINT LeftShoulder
				{
					OFFSET 0.000000 0.000000 0.000000
					CHANNELS 3 Zrotation Yrotation Xrotation
					JOINT LeftArm
					{
						OFFSET 2.700000 1.550000 -0.730000
						CHANNELS 3 Zrotation Yrotation Xrotation
						JOINT LeftForeArm
						{
							OFFSET 5.450000 0.000000 0.000000
							CHANNELS 3 Zrotation Yrotation Xrotation
							JOINT LeftHand
							{
								OFFSET 3.450000 0.000000 0.000000
								CHANNELS 3 Zrotation Yrotation Xrotation
								JOINT LeftHandIndex1
								{
									OFFSET 0.750000 0.000000 0.000000
									CHANNELS 3 Zrotation Yrotation Xrotation
									End Site
									{
										OFFSET 0.000000 0.000000 0.000000
									}
								}
							}
						}
					}
				}
				JOINT RightShoulder
				{
					OFFSET 0.000000 0.000000 0.000000
					CHANNELS 3 Zrotation Yrotation Xrotation
					JOINT RightArm
					{
						OFFSET -2.700000 1.550000 -0.730000
						CHANNELS 3 Zrotation Yrotation Xrotation
						JOINT RightForeArm
						{
							OFFSET -5.450000 0.000000 0.000000
							CHANNELS 3 Zrotation Yrotation Xrotation
							JOINT RightHand
							{
								OFFSET -3.450000 0.000000 0.000000
								CHANNELS 3 Zrotation Yrotation Xrotation
								JOINT RightHandIndex1
								{
									OFFSET -0.750000 0.000000 0.000000
									CHANNELS 3 Zrotation Yrotation Xrotation
									End Site
									{
										OFFSET 0.000000 0.000000 0.000000
									}
								}
							}
						}
					}
				}
			}
		}
	}
}
MOTION
Frames: 4
Frame Time: 0.016667
-0.199850 17.139770 -6.205780 -7.081739 11.410346 7.026086 -15.541250 10.577357 5.127546 13.499024 -7.228819 -52.530418 7.617712 5.875890 43.047192 0.135650 6.856692 1.939169 0.199540 0.192240 0.069090 18.494215 -7.670199 4.921179 -6.893275 15.444230 -46.214553 20.925484 -16.064847 48.818170 -1.293291 -8.431357 1.349644 0.126350 0.021900 0.074170 -3.376177 -1.899841 -9.829980 -2.045083 -0.490969 43.064462 -4.311062 1.492301 -13.071031 0.649863 -1.244174 -9.215140 -4.396088 -4.611495 31.792668 4.938300 -5.743650 -18.484120 -42.527286 -14.946343 2.935701 -26.749527 3.297605 -2.712371 -2.531290 0.524712 -0.914577 -3.663007 2.728228 0.328570 -0.117060 0.156190 0.078760 41.150548 18.413162 4.324225 38.387525 2.413952 -7.647304 14.333210 12.223404 -0.076040 2.417050 -1.135159 -0.063630 0.215720 0.015200 -0.014020 
-0.246070 17.038110 -6.244400 -8.027870 11.098793 6.889916 -15.606037 10.325044 5.297945 16.156534 -6.904291 -54.034724 6.714735 6.912941 45.227763 0.199284 7.434683 1.728421 0.231510 0.232700 0.099160 18.511779 -7.320208 5.034492 -6.747971 16.553098 -47.927206 21.542880 -16.971377 50.947349 -1.446774 -8.890890 1.209601 0.147290 -0.000140 0.075630 -3.275397 -2.049225 -9.977739 -3.960136 0.659349 46.250916 -2.718394 2.113533 -14.555118 0.297803 -1.184685 -9.353260 -4.241074 -4.663556 31.260553 5.650330 -5.356350 -20.520380 -43.581372 -15.491171 2.602914 -24.986388 1.804893 -2.671735 -2.965899 -0.308905 -0.940223 -3.642022 2.708650 0.357340 -0.140310 0.187380 0.079670 43.241150 18.799907 4.705064 36.879592 1.590719 -7.539026 13.306296 10.927643 -0.221301 2.403054 -1.097997 -0.060400 0.228400 0.000700 -0.021250 
-0.272210 16.880800 -6.322870 -8.845886 10.443553 7.013194 -15.665665 9.933689 5.534118 18.953308 -7.020634 -55.943504 5.852711 8.042382 48.110730 0.295935 8.137982 1.487749 0.238110 0.238750 0.107510 18.563021 -6.844833 5.259512 -7.484385 17.820320 -51.759794 21.572661 -18.223262 54.599192 -1.636321 -9.622558 0.994862 0.148630 -0.008080 0.083020 -3.224842 -2.178470 -10.206992 -5.898999 2.100414 50.882732 -1.127835 2.963066 -16.103684 -0.037302 -1.911584 -10.353033 -5.470266 -4.562168 30.794454 5.519030 -5.217840 -21.692100 -44.583512 -17.393645 2.230887 -22.890130 -1.112844 -2.836351 -3.387244 -1.963123 -0.922019 -3.651554 2.679735 0.376520 -0.150110 0.202940 0.076180 45.461480 20.717716 6.118514 35.107802 -0.134655 -7.137795 11.991066 8.494028 -0.432322 2.396401 -1.035568 -0.059390 0.236430 0.004980 -0.025130 
-0.270310 16.707750 -6.416020 -9.250198 8.781109 7.364174 -15.709683 9.451010 5.816670 21.741026 -7.251725 -58.066761 4.649970 9.681042 52.093558 0.455443 9.042115 1.183056 0.257940 0.266140 0.119530 18.634801 -6.414543 5.467729 -7.852937 19.087106 -55.771547 20.209972 -19.208557 59.568008 -1.855541 -10.437303 0.760616 0.153940 -0.034550 0.078640 -3.244627 -2.126558 -10.454428 -8.416944 4.020216 55.143353 0.385699 3.641706 -16.443760 -0.492048 -2.953661 -11.684355 -7.196653 -3.769407 30.650470 6.342510 -4.728100 -23.406940 -44.067468 -19.936109 2.091845 -21.297471 -4.559556 -3.098274 -3.474039 -3.902977 -0.834311 -3.636616 2.662460 0.410130 -0.186320 0.235430 0.076800 46.515000 23.268397 7.708309 34.066489 -1.377579 -6.998897 11.151875 7.536279 -0.477810 2.392725 -0.992703 -0.052310 0.244330 -0.003610 -0.025990 
